<?xml version="1.0" standalone="no"?>
<!DOCTYPE svg PUBLIC "-//W3C//DTD SVG 20010904//EN"
 "http://www.w3.org/TR/2001/REC-SVG-20010904/DTD/svg10.dtd">
<svg version="1.0" xmlns="http://www.w3.org/2000/svg"
 width="511.000000pt" height="511.000000pt" viewBox="0 0 511.000000 511.000000"
 preserveAspectRatio="xMidYMid meet">
<metadata>
Created by potrace 1.14, written by Peter Selinger 2001-2017
</metadata>
<g transform="translate(0.000000,511.000000) scale(0.100000,-0.100000)"
fill="#000000" stroke="none">
<path d="M2316 5102 c-10 -2 -84 -44 -165 -92 -80 -49 -171 -103 -202 -120
-31 -17 -62 -42 -69 -55 -10 -20 -13 -218 -14 -964 -1 -1074 11 -953 -103
-1017 -70 -39 -106 -47 -140 -31 -54 24 -52 -11 -52 874 0 450 -3 831 -6 846
-8 30 -49 57 -87 57 -13 0 -54 -21 -93 -46 -38 -25 -79 -49 -90 -54 -59 -26
-262 -159 -271 -179 -8 -16 -11 -284 -11 -954 0 -662 -3 -938 -11 -953 -14
-27 -180 -128 -212 -130 -33 -1 -57 11 -76 41 -14 22 -16 112 -16 852 1 810 0
828 -19 860 -14 23 -30 34 -55 39 -30 5 -45 0 -110 -40 -41 -25 -77 -46 -80
-46 -2 0 -35 -19 -72 -43 -104 -67 -172 -107 -182 -107 -5 0 -17 -12 -27 -27
-16 -24 -17 -107 -18 -1287 0 -694 3 -1273 8 -1288 10 -32 47 -58 81 -58 24 0
134 59 251 135 28 18 62 38 77 46 23 12 141 82 363 217 355 214 421 254 543
323 18 11 45 28 60 38 15 10 151 92 302 182 151 90 282 169 292 174 9 6 58 34
110 64 51 30 95 58 96 63 2 4 9 8 16 8 7 0 30 15 51 33 l39 34 1 1259 c0 692
-3 1273 -7 1290 -10 38 -59 65 -102 56z"/>
<path d="M2712 5100 c-12 -5 -27 -21 -32 -35 -11 -29 -15 -2542 -4 -2570 7
-17 102 -82 199 -135 33 -18 65 -37 71 -42 24 -18 178 -108 186 -108 5 0 19
-9 31 -21 12 -11 44 -32 72 -46 27 -14 68 -37 90 -52 41 -26 55 -35 141 -85
27 -16 84 -51 126 -78 42 -26 80 -48 83 -48 3 0 18 -8 33 -18 29 -20 95 -60
363 -218 57 -34 127 -76 154 -93 85 -53 316 -191 320 -191 3 0 35 -20 72 -44
37 -24 110 -67 162 -96 l93 -53 34 17 c19 9 39 27 44 41 10 27 12 1240 2 1266
-6 15 -57 77 -121 148 -66 74 -56 119 37 166 100 49 91 -3 91 509 1 282 -3
462 -10 481 -8 24 -32 43 -117 93 -59 34 -118 69 -132 77 -14 8 -101 60 -195
116 -93 56 -213 126 -265 157 -52 30 -106 63 -120 72 -25 17 -103 62 -151 87
-15 7 -32 20 -39 28 -7 8 -16 15 -21 15 -5 0 -38 18 -74 40 -36 22 -68 40 -72
40 -3 0 -20 10 -37 23 -17 13 -77 50 -134 83 -56 32 -137 79 -180 104 -43 25
-91 54 -107 66 -17 11 -57 36 -90 54 -33 18 -69 38 -80 45 -11 6 -46 27 -77
48 -31 20 -59 37 -62 37 -2 0 -52 29 -111 65 -107 65 -130 72 -173 55z m733
-1098 c55 -32 130 -78 167 -101 37 -22 72 -41 78 -41 5 0 10 -4 10 -10 0 -5 4
-10 8 -10 11 0 270 -155 293 -176 10 -9 19 -14 19 -11 0 4 29 -11 65 -33 36
-22 69 -40 74 -40 5 0 15 -7 22 -16 7 -9 23 -20 36 -25 16 -6 23 -17 24 -36 3
-85 1 -265 -3 -269 -5 -4 -119 54 -128 65 -3 4 -32 22 -65 41 -33 18 -107 61
-165 96 -58 34 -162 96 -233 138 -70 42 -130 76 -133 76 -3 0 -20 10 -37 23
-31 21 -99 61 -164 94 -21 11 -33 24 -33 37 -1 39 -1 241 -1 269 l1 29 33 -20
c17 -12 77 -47 132 -80z m-107 -964 c28 -18 78 -49 113 -68 34 -19 81 -47 103
-61 40 -25 148 -90 230 -138 191 -111 456 -275 457 -282 3 -30 3 -289 0 -289
-4 0 -120 66 -269 154 -62 36 -117 66 -123 66 -5 0 -9 4 -9 8 0 5 -21 20 -47
33 -27 13 -50 26 -53 29 -3 3 -25 16 -50 29 -25 13 -52 29 -60 36 -8 7 -20 14
-25 16 -36 13 -325 194 -325 203 -1 24 -1 213 -1 254 1 23 3 42 5 42 2 0 27
-15 54 -32z"/>
<path d="M2485 2215 c-27 -14 -113 -64 -190 -111 -77 -47 -160 -97 -185 -110
-25 -14 -76 -45 -115 -70 -38 -24 -79 -49 -90 -55 -21 -10 -58 -32 -152 -90
-32 -20 -114 -69 -183 -109 -69 -40 -147 -87 -175 -105 -27 -18 -174 -105
-325 -195 -151 -90 -294 -176 -316 -191 -23 -16 -52 -33 -65 -39 -25 -10 -208
-122 -248 -152 -29 -21 -36 -76 -13 -106 14 -18 236 -122 261 -122 4 0 52 -18
107 -41 54 -22 155 -62 224 -88 103 -40 237 -94 355 -141 11 -5 43 -16 70 -26
28 -10 55 -21 60 -25 6 -4 66 -28 135 -54 69 -25 143 -54 165 -64 22 -11 112
-47 200 -81 176 -68 402 -157 479 -188 56 -22 97 -17 181 23 28 13 64 27 80
31 17 4 35 10 40 14 6 3 33 15 60 25 28 9 64 24 80 31 17 8 104 43 195 78 91
35 219 85 285 111 66 25 145 57 175 70 30 13 87 36 125 51 112 42 447 173 485
191 19 8 98 39 175 69 191 72 266 106 293 129 23 21 29 63 12 95 -5 10 -76 57
-157 105 -82 49 -167 101 -190 117 -23 15 -44 28 -48 28 -3 0 -31 16 -61 35
-30 19 -56 35 -59 35 -2 0 -23 13 -47 29 -24 16 -63 40 -88 54 -25 13 -92 53
-150 88 -58 35 -117 70 -133 78 -15 8 -27 18 -27 23 0 4 -5 8 -10 8 -11 0
-295 166 -385 225 -27 18 -90 56 -140 85 -49 28 -164 96 -255 152 -91 55 -172
103 -180 106 -8 3 -40 22 -70 42 -59 38 -103 60 -123 60 -7 0 -34 -11 -62 -25z"/>
</g>
</svg>
